<mxfile host="app.diagrams.net">
  <diagram name="BMC_Input Architecture" id="arch">
    <mxGraphModel dx="1600" dy="900" grid="1" gridSize="10">
      <root>
        <mxCell id="0"/>
        <mxCell id="1" parent="0"/>
        
        <mxCell id="title" value="BMC_Input AWS Architecture" style="rounded=0;whiteSpace=wrap;html=1;fillColor=#232F3E;strokeColor=none;fontColor=#FFFFFF;fontSize=18;fontStyle=1;align=center;" vertex="1" parent="1">
          <mxGeometry x="50" y="20" width="1500" height="50" as="geometry"/>
        </mxCell>
        
        <mxCell id="aws" value="AWS Cloud" style="rounded=1;whiteSpace=wrap;html=1;fillColor=#E3F2FD;strokeColor=#1976D2;strokeWidth=2;fontSize=14;fontStyle=1;verticalAlign=top;" vertex="1" parent="1">
          <mxGeometry x="100" y="100" width="1400" height="700" as="geometry"/>
        </mxCell>
        
        <mxCell id="app_layer" value="Application Layer - ECS Fargate" style="rounded=1;whiteSpace=wrap;html=1;fillColor=#E8F5E8;strokeColor=#4CAF50;strokeWidth=2;fontSize=12;fontStyle=1;verticalAlign=top;" vertex="1" parent="1">
          <mxGeometry x="200" y="200" width="800" height="200" as="geometry"/>
        </mxCell>
        <mxCell id="invoice_service" value="Invoice_Service" style="sketch=0;outlineConnect=0;fontColor=#232F3E;fillColor=#D05C17;strokeColor=#ffffff;shape=mxgraph.aws4.fargate;" vertex="1" parent="1">
          <mxGeometry x="300" y="280" width="40" height="40" as="geometry"/>
        </mxCell>
        <mxCell id="product_service" value="Product_Service" style="sketch=0;outlineConnect=0;fontColor=#232F3E;fillColor=#D05C17;strokeColor=#ffffff;shape=mxgraph.aws4.fargate;" vertex="1" parent="1">
          <mxGeometry x="420" y="280" width="40" height="40" as="geometry"/>
        </mxCell>
        <mxCell id="ocr_service" value="Ocr_Service" style="sketch=0;outlineConnect=0;fontColor=#232F3E;fillColor=#D05C17;strokeColor=#ffffff;shape=mxgraph.aws4.fargate;" vertex="1" parent="1">
          <mxGeometry x="540" y="280" width="40" height="40" as="geometry"/>
        </mxCell>
        <mxCell id="commission_service" value="Commission_Service" style="sketch=0;outlineConnect=0;fontColor=#232F3E;fillColor=#D05C17;strokeColor=#ffffff;shape=mxgraph.aws4.fargate;" vertex="1" parent="1">
          <mxGeometry x="660" y="280" width="40" height="40" as="geometry"/>
        </mxCell>
        <mxCell id="certificate_service" value="Certificate_Service" style="sketch=0;outlineConnect=0;fontColor=#232F3E;fillColor=#D05C17;strokeColor=#ffffff;shape=mxgraph.aws4.fargate;" vertex="1" parent="1">
          <mxGeometry x="780" y="280" width="40" height="40" as="geometry"/>
        </mxCell>
        <mxCell id="data_layer" value="Data Layer" style="rounded=1;whiteSpace=wrap;html=1;fillColor=#FCE4EC;strokeColor=#E91E63;strokeWidth=2;fontSize=12;fontStyle=1;verticalAlign=top;" vertex="1" parent="1">
          <mxGeometry x="200" y="500" width="600" height="150" as="geometry"/>
        </mxCell>
        
        <mxCell id="rds" value="RDS PostgreSQL" style="sketch=0;outlineConnect=0;fontColor=#232F3E;fillColor=#116D5B;strokeColor=#ffffff;shape=mxgraph.aws4.rds;" vertex="1" parent="1">
          <mxGeometry x="300" y="580" width="40" height="40" as="geometry"/>
        </mxCell>
        
        <mxCell id="s3" value="S3 Storage" style="sketch=0;outlineConnect=0;fontColor=#232F3E;fillColor=#277116;strokeColor=#ffffff;shape=mxgraph.aws4.s3;" vertex="1" parent="1">
          <mxGeometry x="500" y="580" width="40" height="40" as="geometry"/>
        </mxCell>
        
      </root>
    </mxGraphModel>
  </diagram>
</mxfile>